<svg width="49" height="62" viewBox="0 0 49 62" fill="none" xmlns="http://www.w3.org/2000/svg">
<g clip-path="url(#clip0)">
<path d="M26 21.7501H35.92L27.07 6.31006L22 15.1601L19.34 10.7201L12.72 21.7201H26V21.7501ZM31.51 19.1901H22.65L27.07 11.4701L31.51 19.1901ZM17.28 19.1901L19.38 15.7001L20.59 17.7001L19.74 19.1801L17.28 19.1901Z" fill="white"/>
<path d="M30.7101 48.63H17.9101C17.7332 48.6143 17.5549 48.6356 17.3867 48.6926C17.2185 48.7495 17.0639 48.8409 16.9329 48.9608C16.8019 49.0807 16.6972 49.2266 16.6256 49.3891C16.5541 49.5517 16.5171 49.7274 16.5171 49.905C16.5171 50.0826 16.5541 50.2583 16.6256 50.4209C16.6972 50.5834 16.8019 50.7293 16.9329 50.8492C17.0639 50.9691 17.2185 51.0605 17.3867 51.1174C17.5549 51.1744 17.7332 51.1957 17.9101 51.18H30.7101C30.887 51.1957 31.0653 51.1744 31.2335 51.1174C31.4018 51.0605 31.5563 50.9691 31.6874 50.8492C31.8184 50.7293 31.923 50.5834 31.9946 50.4209C32.0662 50.2583 32.1031 50.0826 32.1031 49.905C32.1031 49.7274 32.0662 49.5517 31.9946 49.3891C31.923 49.2266 31.8184 49.0807 31.6874 48.9608C31.5563 48.8409 31.4018 48.7495 31.2335 48.6926C31.0653 48.6356 30.887 48.6143 30.7101 48.63V48.63Z" fill="white"/>
<path d="M11.52 46.0698H37.11C37.4495 46.0698 37.775 45.9349 38.0151 45.6949C38.2551 45.4548 38.39 45.1292 38.39 44.7898C38.39 44.4503 38.2551 44.1247 38.0151 43.8847C37.775 43.6446 37.4495 43.5098 37.11 43.5098H11.52C11.1805 43.5098 10.8549 43.6446 10.6149 43.8847C10.3748 44.1247 10.24 44.4503 10.24 44.7898C10.24 45.1292 10.3748 45.4548 10.6149 45.6949C10.8549 45.9349 11.1805 46.0698 11.52 46.0698V46.0698Z" fill="white"/>
<path d="M47.34 0H1.28C0.940523 0 0.61495 0.134857 0.374903 0.374903C0.134857 0.61495 0 0.940523 0 1.28L0 28.15C0 28.4895 0.134857 28.8151 0.374903 29.0551C0.61495 29.2951 0.940523 29.43 1.28 29.43H47.34C47.6795 29.43 48.0051 29.2951 48.2451 29.0551C48.4851 28.8151 48.62 28.4895 48.62 28.15V1.28C48.62 0.940523 48.4851 0.61495 48.2451 0.374903C48.0051 0.134857 47.6795 0 47.34 0V0ZM46.07 26.87H2.56V2.56H46.07V26.87Z" fill="white"/>
<path d="M47.34 32H1.28C0.942248 32 0.618182 32.1335 0.378421 32.3714C0.138659 32.6092 0.00263868 32.9323 0 33.27L0 60.14C0 60.4795 0.134857 60.8051 0.374903 61.0451C0.61495 61.2851 0.940523 61.42 1.28 61.42H47.34C47.6795 61.42 48.0051 61.2851 48.2451 61.0451C48.4851 60.8051 48.62 60.4795 48.62 60.14V33.27C48.6174 32.9323 48.4813 32.6092 48.2416 32.3714C48.0018 32.1335 47.6778 32 47.34 32V32ZM46.07 58.86H2.56V34.55H46.07V58.86Z" fill="white"/>
</g>
<defs>
<clipPath id="clip0">
<rect width="48.62" height="61.42" fill="white"/>
</clipPath>
</defs>
</svg>
