<svg width="49" height="47" viewBox="0 0 49 47" fill="none" xmlns="http://www.w3.org/2000/svg">
<g clip-path="url(#clip0)">
<path d="M38.4909 26.3357C36.8322 26.344 35.2011 26.7615 33.7424 27.5512L31.5221 24.1883C33.8909 22.6327 35.6946 20.3543 36.6653 17.6918C37.636 15.0292 37.7218 12.1246 36.9099 9.40941C36.0981 6.69422 34.4319 4.3134 32.1591 2.62068C29.8862 0.927955 27.1278 0.0136719 24.2939 0.0136719C21.4599 0.0136719 18.7016 0.927955 16.4287 2.62068C14.1558 4.3134 12.4897 6.69422 11.6778 9.40941C10.866 12.1246 10.9518 15.0292 11.9225 17.6918C12.8931 20.3543 14.6969 22.6327 17.0657 24.1883L14.8373 27.5188C12.5363 26.3114 9.85939 26.0345 7.36003 26.7453C4.86067 27.4562 2.73007 29.1003 1.40884 31.3378C0.0876126 33.5753 -0.323188 36.235 0.261391 38.7669C0.84597 41.2988 2.38121 43.5091 4.54964 44.9409C6.71807 46.3727 9.35381 46.9164 11.9118 46.4595C14.4698 46.0027 16.7544 44.5802 18.2931 42.4863C19.8319 40.3924 20.507 37.7873 20.179 35.2096C19.8511 32.6319 18.545 30.2788 16.5309 28.637L18.8484 25.1202C20.5594 25.8944 22.4159 26.2949 24.2939 26.2949C26.1719 26.2949 28.0283 25.8944 29.7393 25.1202L32.0569 28.5965C30.2032 30.0994 28.9396 32.2084 28.489 34.5519C28.0383 36.8953 28.4295 39.3226 29.5936 41.4058C30.7577 43.489 32.6199 45.0943 34.852 45.9386C37.084 46.783 39.5424 46.8122 41.7938 46.0211C44.0453 45.2299 45.9451 43.6693 47.1583 41.6144C48.3715 39.5594 48.8203 37.1421 48.4254 34.7886C48.0305 32.4351 46.8174 30.2966 44.9999 28.7502C43.1824 27.2037 40.8773 26.3486 38.4909 26.3357V26.3357ZM4.9026 42.6558C5.24182 42.5489 5.57233 42.4162 5.89121 42.2587L6.06948 42.1372C7.01272 41.8583 7.86722 41.3389 8.5491 40.63C9.00833 40.9743 9.55677 41.1796 10.1293 41.2215C10.7017 41.1796 11.2502 40.9743 11.7094 40.63C12.3951 41.3358 13.2481 41.8571 14.189 42.1453L14.3673 42.2263C14.6862 42.3838 15.0167 42.5165 15.3559 42.6234C13.8939 43.8574 12.0424 44.5343 10.1293 44.5343C8.21608 44.5343 6.36461 43.8574 4.9026 42.6234V42.6558ZM11.4339 38.1909C11.0958 38.6414 10.6462 38.9961 10.1293 39.22C9.61529 38.9949 9.16854 38.6403 8.83272 38.1909C8.28553 37.5754 7.96279 36.7928 7.91704 35.9705C7.91704 34.4471 8.80841 33.4261 10.1293 33.4261C11.4501 33.4261 12.3415 34.4471 12.3415 35.9705C12.2949 36.7911 11.9754 37.5726 11.4339 38.1909V38.1909ZM18.2326 36.4648C18.2371 38.1023 17.7424 39.7022 16.8145 41.0513C16.693 40.9683 16.5589 40.9053 16.4174 40.865H16.3607C15.8616 40.7186 15.3762 40.5288 14.9102 40.2977C13.6218 39.8034 13.2896 39.4874 13.2004 39.2848V39.22C13.9277 38.2925 14.3394 37.1567 14.3754 35.9786C14.3754 33.2235 12.4792 31.4084 10.1374 31.4084C7.79549 31.4084 5.89121 33.2235 5.89121 35.9705C5.93111 37.1479 6.34239 38.2824 7.06619 39.2119V39.2605C6.97706 39.4307 6.64482 39.7791 5.35639 40.2734C4.89037 40.5044 4.40502 40.6942 3.90589 40.8406H3.84917C3.70831 40.8827 3.57449 40.9456 3.45211 41.027C2.34006 39.3606 1.88476 37.3412 2.17411 35.3588C2.46345 33.3763 3.47692 31.5714 5.01889 30.2923C6.56086 29.0132 8.52201 28.3506 10.5238 28.4325C12.5255 28.5144 14.426 29.335 15.8583 30.7358C16.6133 31.4862 17.212 32.379 17.6195 33.3624C18.0271 34.3458 18.2355 35.4003 18.2326 36.4648V36.4648ZM16.4336 5.29132C17.9919 3.73396 19.9768 2.67349 22.1376 2.24393C24.2984 1.81438 26.538 2.03502 28.5734 2.87797C30.6088 3.72093 32.3486 5.14836 33.573 6.97985C34.7974 8.81135 35.4513 10.9647 35.4522 13.1678C35.4546 15.6817 34.5967 18.1209 33.0212 20.0799C32.8456 19.9625 32.6548 19.8698 32.4539 19.8044H32.381C31.7312 19.618 31.0993 19.374 30.4929 19.0751C28.8236 18.4349 28.3861 17.973 28.2726 17.7623V16.247C29.2212 15.0334 29.7577 13.5487 29.8041 12.009C29.8041 8.43541 27.3731 6.07734 24.302 6.07734C21.2308 6.07734 18.7998 8.43541 18.7998 12.009C18.8462 13.5487 19.3828 15.0334 20.3313 16.247V17.7137C20.2179 17.9244 19.7803 18.3863 18.111 19.0265C17.5047 19.3253 16.8728 19.5694 16.223 19.7558H16.15C15.9492 19.8211 15.7583 19.9139 15.5828 20.0313C13.8996 17.8945 13.0569 15.2155 13.2136 12.5C13.3704 9.78444 14.5158 7.22021 16.4336 5.29132ZM22.2924 15.4367C21.4159 14.5027 20.8991 13.2881 20.8338 12.009C20.7915 10.9428 21.1665 9.90214 21.8791 9.10799C22.5246 8.4647 23.3988 8.1035 24.3101 8.1035C25.2214 8.1035 26.0956 8.4647 26.7411 9.10799C27.4537 9.90214 27.8287 10.9428 27.7864 12.009C27.7246 13.2889 27.2072 14.5046 26.3278 15.4367C25.829 16.1162 25.1197 16.6119 24.3101 16.8467C23.5005 16.6119 22.7912 16.1162 22.2924 15.4367ZM17.0819 21.6438C17.5832 21.4927 18.071 21.3003 18.5405 21.0685L18.8241 20.9389C20.6717 20.2339 21.6603 19.5532 22.1222 18.6618L22.187 18.5322L22.3491 18.1675C22.9247 18.5799 23.6037 18.824 24.3101 18.8725C25.0173 18.8278 25.6973 18.5834 26.2711 18.1675L26.4413 18.5403L26.498 18.6618C26.9518 19.5532 27.9404 20.2339 29.796 20.9389L30.0797 21.0685C30.5514 21.3014 31.0421 21.4939 31.5464 21.6438C29.5296 23.3647 26.9653 24.31 24.3141 24.31C21.663 24.31 19.0987 23.3647 17.0819 21.6438V21.6438ZM32.7619 30.7358C34.1895 29.3028 36.1015 28.4555 38.122 28.3605C40.1426 28.2655 42.1256 28.9296 43.6814 30.2224C45.2372 31.5152 46.2532 33.3431 46.5298 35.3469C46.8064 37.3506 46.3236 39.3854 45.1762 41.0513C45.0547 40.9683 44.9206 40.9053 44.7791 40.865H44.7224C44.2233 40.7186 43.7379 40.5288 43.2719 40.2977C41.9835 39.8034 41.6512 39.4874 41.5621 39.2848V39.22C42.2894 38.2925 42.7011 37.1567 42.7371 35.9786C42.7371 33.2235 40.8409 31.4084 38.499 31.4084C36.1572 31.4084 34.2529 33.2235 34.2529 35.9705C34.2928 37.1479 34.7041 38.2824 35.4279 39.2119V39.2605C35.3387 39.4307 35.0065 39.7791 33.7181 40.2734C33.252 40.5044 32.7667 40.6942 32.2676 40.8406H32.2108C32.0693 40.881 31.9352 40.944 31.8138 41.027C30.7437 39.4665 30.2535 37.5806 30.4281 35.6965C30.6028 33.8124 31.4313 32.0488 32.77 30.7115L32.7619 30.7358ZM37.1863 38.1909C36.6447 37.5726 36.3253 36.7911 36.2787 35.9705C36.2787 34.4471 37.1701 33.4261 38.4909 33.4261C39.8118 33.4261 40.7031 34.4471 40.7031 35.9705C40.6565 36.7911 40.3371 37.5726 39.7956 38.1909C39.4575 38.6414 39.0078 38.9961 38.4909 39.22C37.974 38.9961 37.5243 38.6414 37.1863 38.1909V38.1909ZM33.2643 42.6558C33.6035 42.5489 33.934 42.4162 34.2529 42.2587L34.4311 42.1696C35.3744 41.8907 36.2289 41.3713 36.9108 40.6624C37.3814 41.0141 37.9449 41.2198 38.5314 41.2539C39.1179 41.2198 39.6815 41.0141 40.1521 40.6624C40.8378 41.3682 41.6907 41.8895 42.6317 42.1777L42.81 42.2587C43.1289 42.4162 43.4594 42.5489 43.7986 42.6558C42.3366 43.8898 40.4851 44.5667 38.5719 44.5667C36.6588 44.5667 34.8073 43.8898 33.3453 42.6558H33.2643Z" fill="white"/>
</g>
<defs>
<clipPath id="clip0">
<rect width="48.62" height="46.5942" fill="white"/>
</clipPath>
</defs>
</svg>
