<svg width="49" height="37" viewBox="0 0 49 37" fill="none" xmlns="http://www.w3.org/2000/svg">
<g clip-path="url(#clip0)">
<path d="M47.5748 26.338C47.5748 28.1425 47.0393 29.9065 46.0361 31.4065C45.0329 32.9065 43.6071 34.075 41.9393 34.7641C40.2716 35.4533 38.4368 35.632 36.6674 35.2777C34.898 34.9233 33.2735 34.0519 31.9997 32.7737C30.7259 31.4955 29.86 29.8681 29.5117 28.0975C29.1635 26.3268 29.3485 24.4927 30.0433 22.8273C30.7382 21.1619 31.9116 19.7401 33.415 18.7421C34.9184 17.744 36.6842 17.2146 38.4888 17.2208C40.9014 17.229 43.2124 18.1932 44.9154 19.9021C46.6185 21.6111 47.5748 23.9253 47.5748 26.338Z" stroke="white" stroke-width="2.6" stroke-miterlimit="10"/>
<path d="M19.2484 26.3379C19.2484 28.1415 18.7135 29.9045 17.7113 31.404C16.7091 32.9035 15.2848 34.0721 13.6184 34.7619C11.9519 35.4517 10.1184 35.6318 8.34959 35.2794C6.58081 34.927 4.95629 34.0579 3.68154 32.782C2.40678 31.5062 1.53906 29.8809 1.18816 28.1118C0.837246 26.3427 1.01891 24.5093 1.71017 22.8435C2.40143 21.1777 3.57122 19.7543 5.07156 18.7534C6.57191 17.7526 8.3354 17.2192 10.1389 17.2207C12.555 17.2248 14.8708 18.187 16.5785 19.8961C18.2862 21.6053 19.2463 23.9219 19.2484 26.3379Z" stroke="white" stroke-width="2.6" stroke-miterlimit="10"/>
<path d="M37.4751 1.01416C43.7144 1.01416 44.4943 5.81065 44.4943 5.81065L47.614 25.3086" stroke="white" stroke-width="2.6" stroke-linecap="round" stroke-linejoin="round"/>
<path d="M11.145 1.01416C4.90569 1.01416 4.12577 5.81065 4.12577 5.81065L1.0061 25.3086" stroke="white" stroke-width="2.6" stroke-linecap="round" stroke-linejoin="round"/>
<path d="M19.2483 23.2963C20.6331 22.0279 22.4324 21.3071 24.3099 21.2686C26.1875 21.3071 27.9868 22.0279 29.3716 23.2963" stroke="white" stroke-width="2.6" stroke-linecap="round" stroke-linejoin="round"/>
</g>
<defs>
<clipPath id="clip0">
<rect width="48.62" height="36.4611" fill="white"/>
</clipPath>
</defs>
</svg>
