<svg width="49" height="45" viewBox="0 0 49 45" fill="none" xmlns="http://www.w3.org/2000/svg">
<g clip-path="url(#clip0)">
<path d="M48.6201 16.2038C48.6185 13.3596 47.8686 10.5659 46.4457 8.10316C45.0229 5.64042 42.9772 3.59535 40.514 2.17327C38.0509 0.751185 35.2569 0.00214873 32.4127 0.00136215C29.5685 0.000575572 26.7741 0.748066 24.3101 2.16878C22.4602 1.0635 20.4084 0.338134 18.2748 0.0351044C16.1412 -0.267925 13.9686 -0.142538 11.8841 0.403935C9.79951 0.950407 7.84481 1.907 6.13429 3.21777C4.42376 4.52854 2.99172 6.16719 1.92192 8.0379C0.852115 9.90861 0.166012 11.9738 -0.0962724 14.1128C-0.358557 16.2518 -0.191759 18.4216 0.394369 20.4954C0.980497 22.5691 1.97419 24.5052 3.31735 26.1905C4.6605 27.8757 6.32617 29.2762 8.21694 30.3101C8.6954 34.2416 10.5965 37.862 13.5613 40.4879C16.5261 43.1138 20.3496 44.5635 24.3101 44.5635C28.2706 44.5635 32.0942 43.1138 35.059 40.4879C38.0238 37.862 39.9249 34.2416 40.4033 30.3101C42.8988 28.8964 44.9743 26.8456 46.4179 24.3673C47.8615 21.889 48.6215 19.0719 48.6201 16.2038V16.2038ZM10.4492 31.355C12.2834 32.0733 14.2344 32.4464 16.2042 32.4554C19.05 32.4589 21.8463 31.7107 24.3101 30.2864C26.3947 31.4889 28.7208 32.2122 31.1196 32.4039C33.5185 32.5956 35.9299 32.2508 38.179 31.3946C37.4905 34.5567 35.7409 37.3881 33.2209 39.4185C30.7009 41.4488 27.5621 42.556 24.326 42.556C21.0898 42.556 17.951 41.4488 15.431 39.4185C12.911 37.3881 11.1615 34.5567 10.473 31.3946L10.4492 31.355ZM38.4798 29.0277L37.9336 29.2731C36.1907 30.0102 34.318 30.3913 32.4256 30.394C30.5333 30.3967 28.6595 30.021 26.9145 29.289C26.677 29.194 26.4475 29.0911 26.2258 28.9802C28.0913 27.5162 29.6132 25.661 30.6841 23.5451C31.755 21.4293 32.3489 19.1044 32.424 16.7342C34.6269 18.2656 36.3506 20.3901 37.3953 22.8612C38.1347 24.6146 38.5116 26.4995 38.5035 28.4024C38.4877 28.5844 38.4877 28.8061 38.4798 29.0277ZM30.3738 15.5706C30.3738 15.7922 30.3738 16.0139 30.3738 16.2355C30.3765 18.0987 30.0108 19.9441 29.2975 21.6653C28.5843 23.3866 27.5377 24.9499 26.2179 26.2651C25.6275 26.8517 24.9835 27.3817 24.2943 27.8483C23.6081 27.3777 22.9645 26.8479 22.3707 26.2651C21.0733 24.9764 20.0406 23.4462 19.331 21.7609C18.5908 20.0074 18.2112 18.1229 18.2148 16.2197C18.2148 15.998 18.2148 15.7764 18.2148 15.5547L18.761 15.3093C20.5072 14.5726 22.3832 14.193 24.2785 14.193C26.1737 14.193 28.0498 14.5726 29.7959 15.3093L30.3738 15.5706ZM24.3101 12.1904C22.3412 12.1887 20.3884 12.5454 18.5473 13.2433C18.7331 12.379 18.998 11.5337 19.3389 10.7181C20.0485 9.03268 21.0812 7.5025 22.3786 6.21386C22.9724 5.63097 23.616 5.10122 24.3022 4.63066C24.9914 5.09719 25.6354 5.62723 26.2258 6.21386C27.5284 7.49105 28.569 9.01033 29.2893 10.6864C29.6302 11.502 29.8951 12.3473 30.0809 13.2116C28.2375 12.5122 26.2818 12.1554 24.3101 12.1588V12.1904ZM16.22 16.7184C16.2913 19.0893 16.8836 21.4155 17.9548 23.5319C19.026 25.6483 20.5498 27.503 22.4182 28.9644L21.7295 29.2731C19.9825 30.0104 18.1059 30.3916 16.2097 30.3943C14.3135 30.397 12.4358 30.0212 10.6867 29.289L10.1484 29.0436C10.1484 28.8219 10.1484 28.6003 10.1484 28.3786C10.1355 26.5165 10.4911 24.6702 11.1948 22.9462C11.8986 21.2221 12.9366 19.6544 14.2489 18.3332C14.8551 17.7357 15.5149 17.1952 16.22 16.7184V16.7184ZM22.4182 3.45118C20.7416 4.7612 19.3401 6.38934 18.2941 8.24221C17.2482 10.0951 16.5783 12.1362 16.3229 14.2486C13.9021 15.6219 11.8754 17.595 10.4378 19.9782C9.00011 22.3613 8.19987 25.0743 8.11403 27.8562C6.23345 26.5502 4.69733 24.808 3.63718 22.7787C2.57702 20.7494 2.02441 18.4934 2.02664 16.2038C2.02559 14.3417 2.3916 12.4977 3.10372 10.7771C3.81584 9.05653 4.86011 7.49319 6.17682 6.17648C7.49353 4.85977 9.05686 3.8155 10.7774 3.10338C12.498 2.39126 14.3421 2.02526 16.2042 2.0263C18.1078 2.01871 19.9931 2.39846 21.7454 3.14245C21.967 3.23744 22.1913 3.34035 22.4182 3.45118ZM45.4854 10.6864C46.588 13.2859 46.887 16.156 46.3438 18.9269C45.8007 21.6978 44.4402 24.2426 42.4378 26.2334C41.8424 26.8177 41.196 27.3475 40.5063 27.8166C40.4167 25.0408 39.6146 22.3347 38.177 19.9586C36.7394 17.5824 34.7146 15.6161 32.2974 14.2486C32.0417 12.1372 31.3725 10.0968 30.328 8.24417C29.2835 6.3915 27.8842 4.76281 26.21 3.45118C26.4316 3.34035 26.6612 3.23744 26.8987 3.14245C29.4968 2.04273 32.3642 1.74454 35.133 2.28617C37.9018 2.8278 40.4456 4.18452 42.4378 6.18219C43.7351 7.4726 44.7701 9.0022 45.4854 10.6864V10.6864Z" fill="white"/>
</g>
<defs>
<clipPath id="clip0">
<rect width="48.62" height="44.567" fill="white"/>
</clipPath>
</defs>
</svg>
