<svg width="49" height="56" viewBox="0 0 49 56" fill="none" xmlns="http://www.w3.org/2000/svg">
<g clip-path="url(#clip0)">
<path d="M0 0V55.5683H48.62V0H0ZM46.3039 53.2522H2.3161V28.9965H46.3039V53.2522ZM2.3161 26.5718V2.3161H46.3039V26.5718H2.3161Z" fill="white"/>
<path d="M16.448 12.5939L14.0504 8.60407L8.14258 18.5289H28.9513L20.9987 4.63232L16.448 12.5939ZM12.1958 16.2128L14.0052 13.1096L15.0909 14.9191L14.34 16.2219L12.1958 16.2128ZM17.0541 16.2128L20.9987 9.30976L24.9524 16.2128H17.0541Z" fill="white"/>
<path d="M27.7843 20.8086H9.25546C8.94833 20.8086 8.65377 20.9306 8.4366 21.1478C8.21942 21.365 8.09741 21.6595 8.09741 21.9666C8.09741 22.2738 8.21942 22.5683 8.4366 22.7855C8.65377 23.0027 8.94833 23.1247 9.25546 23.1247H27.7843C28.0914 23.1247 28.3859 23.0027 28.6031 22.7855C28.8203 22.5683 28.9423 22.2738 28.9423 21.9666C28.9423 21.6595 28.8203 21.365 28.6031 21.1478C28.3859 20.9306 28.0914 20.8086 27.7843 20.8086V20.8086Z" fill="white"/>
<path d="M9.25545 47.4621C9.0268 47.4638 8.8038 47.5333 8.61455 47.6616C8.42531 47.7899 8.27829 47.9714 8.19202 48.1832C8.10576 48.3949 8.08411 48.6275 8.12981 48.8515C8.17551 49.0756 8.28651 49.2811 8.44882 49.4421C8.61113 49.6032 8.81749 49.7126 9.04188 49.7565C9.26627 49.8005 9.49865 49.777 9.70973 49.6891C9.92081 49.6012 10.1011 49.4528 10.228 49.2625C10.3548 49.0723 10.4225 48.8488 10.4225 48.6201C10.4238 48.4669 10.3944 48.315 10.336 48.1734C10.2777 48.0317 10.1916 47.9032 10.0829 47.7953C9.97414 47.6874 9.84492 47.6023 9.70282 47.5451C9.56072 47.4879 9.40862 47.4596 9.25545 47.4621Z" fill="white"/>
<path d="M13.8875 47.4619C13.6589 47.4637 13.4359 47.5332 13.2466 47.6615C13.0574 47.7898 12.9104 47.9713 12.8241 48.1831C12.7378 48.3948 12.7162 48.6274 12.7619 48.8514C12.8076 49.0755 12.9186 49.281 13.0809 49.442C13.2432 49.6031 13.4496 49.7125 13.674 49.7564C13.8983 49.8004 14.1307 49.7769 14.3418 49.689C14.5529 49.6011 14.7332 49.4527 14.8601 49.2624C14.9869 49.0722 15.0546 48.8487 15.0546 48.62C15.0546 48.4672 15.0244 48.3158 14.9656 48.1747C14.9069 48.0336 14.8207 47.9056 14.7122 47.7979C14.6038 47.6903 14.475 47.6052 14.3335 47.5475C14.1919 47.4898 14.0404 47.4608 13.8875 47.4619Z" fill="white"/>
<path d="M18.5289 47.4619C18.2995 47.4602 18.0747 47.5266 17.8831 47.6527C17.6915 47.7789 17.5416 47.9591 17.4526 48.1705C17.3635 48.382 17.3393 48.6151 17.383 48.8403C17.4266 49.0656 17.5362 49.2727 17.6978 49.4356C17.8594 49.5985 18.0657 49.7097 18.2906 49.7551C18.5155 49.8005 18.7488 49.7781 18.9609 49.6907C19.1731 49.6034 19.3545 49.4549 19.4821 49.2643C19.6098 49.0737 19.6779 48.8494 19.6779 48.62C19.6779 48.3144 19.5572 48.0212 19.3419 47.8043C19.1267 47.5874 18.8345 47.4643 18.5289 47.4619V47.4619Z" fill="white"/>
<path d="M23.1519 47.4619C22.9229 47.4619 22.699 47.5298 22.5086 47.6571C22.3181 47.7843 22.1697 47.9652 22.082 48.1768C21.9944 48.3884 21.9715 48.6212 22.0161 48.8459C22.0608 49.0705 22.1711 49.2769 22.3331 49.4388C22.495 49.6008 22.7014 49.7111 22.926 49.7558C23.1507 49.8004 23.3835 49.7775 23.5951 49.6899C23.8067 49.6022 23.9876 49.4538 24.1148 49.2633C24.2421 49.0729 24.31 48.849 24.31 48.62C24.31 48.3128 24.188 48.0183 23.9708 47.8011C23.7536 47.5839 23.4591 47.4619 23.1519 47.4619Z" fill="white"/>
<path d="M27.7843 47.4619C27.5556 47.4637 27.3326 47.5332 27.1434 47.6615C26.9541 47.7898 26.8071 47.9713 26.7208 48.1831C26.6346 48.3948 26.6129 48.6274 26.6586 48.8514C26.7043 49.0755 26.8153 49.281 26.9776 49.442C27.1399 49.6031 27.3463 49.7125 27.5707 49.7564C27.7951 49.8004 28.0275 49.7769 28.2385 49.689C28.4496 49.6011 28.6299 49.4527 28.7568 49.2624C28.8837 49.0722 28.9513 48.8487 28.9514 48.62C28.9514 48.4672 28.9211 48.3158 28.8623 48.1747C28.8036 48.0336 28.7175 47.9056 28.609 47.7979C28.5005 47.6903 28.3717 47.6052 28.2302 47.5475C28.0887 47.4898 27.9371 47.4608 27.7843 47.4619Z" fill="white"/>
<path d="M20.0126 45.1459H28.9513L20.9987 31.2583L16.4751 39.2199L14.0776 35.221L8.14258 45.1459H20.0126ZM24.9524 42.8388H17.0541L20.9987 35.9267L24.9524 42.8388ZM12.1958 42.8388L14.0052 39.7265L15.0909 41.536L14.34 42.8478L12.1958 42.8388Z" fill="white"/>
<path d="M43.6529 11.635C43.4358 11.4179 43.1412 11.2959 42.8342 11.2959C42.5271 11.2959 42.2325 11.4179 42.0154 11.635L37.926 15.7334L36.2794 14.0959C36.0622 13.8787 35.7677 13.7568 35.4606 13.7568C35.1535 13.7568 34.859 13.8787 34.6419 14.0959C34.4291 14.3153 34.3101 14.609 34.3101 14.9146C34.3101 15.2203 34.4291 15.514 34.6419 15.7334L37.0937 18.1852C37.3108 18.4023 37.6054 18.5243 37.9124 18.5243C38.2195 18.5243 38.5141 18.4023 38.7312 18.1852L43.6439 13.2726C43.8622 13.0566 43.9858 12.7627 43.9875 12.4556C43.9892 12.1486 43.8689 11.8534 43.6529 11.635V11.635Z" fill="white"/>
<path d="M37.0938 44.6212C37.3121 44.8361 37.6062 44.9566 37.9126 44.9566C38.2189 44.9566 38.513 44.8361 38.7313 44.6212V44.6212L40.3689 42.9746L42.0065 44.6212C42.2248 44.8383 42.5205 44.9598 42.8284 44.959C43.1364 44.9582 43.4314 44.835 43.6485 44.6167C43.8657 44.3983 43.9872 44.1026 43.9864 43.7947C43.9855 43.4867 43.8624 43.1917 43.644 42.9746V42.9746L42.0065 41.3461L43.644 39.7085C43.8559 39.4903 43.9735 39.1974 43.9713 38.8932C43.9691 38.589 43.8472 38.2979 43.6321 38.0828C43.417 37.8677 43.1259 37.7459 42.8217 37.7437C42.5175 37.7415 42.2247 37.859 42.0065 38.071V38.071L40.3689 39.7085L38.7313 38.071C38.5131 37.859 38.2203 37.7415 37.9161 37.7437C37.6119 37.7459 37.3208 37.8677 37.1057 38.0828C36.8906 38.2979 36.7687 38.589 36.7665 38.8932C36.7643 39.1974 36.8818 39.4903 37.0938 39.7085V39.7085L38.7313 41.3461L37.0938 42.9746C36.8761 43.1933 36.7539 43.4893 36.7539 43.7979C36.7539 44.1064 36.8761 44.4025 37.0938 44.6212Z" fill="white"/>
</g>
<defs>
<clipPath id="clip0">
<rect width="48.62" height="55.5683" fill="white"/>
</clipPath>
</defs>
</svg>
