<svg xmlns="http://www.w3.org/2000/svg" enable-background="new 0 0 24 24" viewBox="0 0 24 24"><path fill="#315BBA" d="M3.339,12.912c0.28,0.656,0.578,1.304,0.914,1.906c0.756,1.106,1.511,2.068,2.267,3.11c0.327,0.611,0.541,1.214,0.69,1.816c0.5,0.66,1.22,1.141,2.056,1.343l0.025,0.005c1.073,0.36,2.193,0.521,3.34,0.458h0.121c0.124,0.005,0.27,0.009,0.416,0.009c1.083,0,1.642-0.469,2.612-0.79l-0.067,0.019c0.826-0.237,1.515-0.708,2.009-1.331l0.006-0.009h0.065c0.121-0.602,0.327-1.205,0.625-1.816c0.746-1.052,1.994-1.71,2.74-2.815c0.973-1.699,1.702-3.675,2.073-5.768l0.017-0.111c-0.401,0.539-1.344,0.5-3.032,0.868c-1.959,0.44-4.46,0.728-7.474,0.728c-3.079,0-5.589-0.306-7.539-0.719C3.451,9.385,2.518,9.424,2.192,8.93c0.168,1.106,0.457,2.175,0.83,3.191C2.574,12.391,3.209,13.02,3.339,12.912z"/><path d="M12.489,8.813c-2.7,0-11.511-0.193-11.511-2.682c0-0.967,1.14-1.429,1.997-1.691c0.398-0.123,0.816,0.102,0.937,0.497c0.122,0.396-0.101,0.816-0.497,0.937c-0.32,0.099-0.542,0.189-0.693,0.262c1.02,0.485,4.343,1.178,9.768,1.178s8.748-0.693,9.768-1.178c-0.151-0.073-0.373-0.164-0.693-0.262c-0.396-0.121-0.619-0.541-0.497-0.937c0.121-0.395,0.538-0.623,0.937-0.497C22.86,4.703,24,5.164,24,6.131C24,8.62,15.189,8.813,12.489,8.813z M22.555,6.323h0.01H22.555z"/><path d="M15.913 6.881c-2.651 0-2.738-1.648-2.741-1.718-.014-.414.311-.761.725-.775.449-.019.761.311.775.724.021.015.315.27 1.241.27 1.051 0 1.695-.548 1.695-.941 0-.363-.726-.94-2.674-.94-1.159 0-1.852.683-2.652 1.474-.905.894-1.931 1.907-3.706 1.907-2.965 0-3.195-1.683-3.195-2.199 0-.842.397-1.306.73-1.547C7.177 2.363 8.954 2.89 9.3 3.003c.393.129.606.552.478.945s-.553.607-.945.48C8.269 4.245 7.314 4.115 6.99 4.351 6.958 4.374 6.881 4.43 6.881 4.682c0 .666 1.412.699 1.695.699 1.159 0 1.852-.683 2.652-1.474C12.134 3.013 13.159 2 14.935 2c3.077 0 4.174 1.261 4.174 2.44C19.108 5.641 17.913 6.881 15.913 6.881zM12.551 10.858c-5.196 0-8.921-.478-11.07-1.421C1.102 9.271.929 8.828 1.096 8.449c.166-.38.606-.552.988-.386 1.958.859 5.479 1.295 10.467 1.295 4.926 0 8.427-.427 10.405-1.269.378-.161.82.014.984.396.162.381-.016.821-.396.983C21.378 10.391 17.679 10.858 12.551 10.858z"/><path d="M13.042,22c-0.202,0-0.383,0-0.564-0.011c-0.126,0.014-0.435,0.05-0.669-0.014c-3.425-0.119-4.12-0.82-4.868-2.365c-0.354-0.734-0.757-1.565-2.069-2.625c-2.274-1.821-3.431-6.255-3.822-8.077C0.962,8.502,1.22,8.104,1.625,8.017c0.4-0.085,0.803,0.17,0.891,0.576c0.279,1.299,1.342,5.659,3.296,7.223c1.576,1.273,2.099,2.353,2.479,3.141c0.492,1.017,0.695,1.438,3.73,1.525c0.05,0.001,0.099,0.007,0.146,0.019c0.106-0.001,0.211-0.002,0.311-0.008c0.163,0.006,0.285,0.008,0.4,0.008c0.046-0.011,0.094-0.018,0.143-0.019c3.035-0.087,3.238-0.508,3.73-1.525c0.382-0.788,0.904-1.868,2.478-3.139c1.925-1.54,3.004-5.899,3.289-7.199c0.089-0.405,0.496-0.662,0.893-0.572c0.405,0.088,0.661,0.488,0.572,0.893c-0.496,2.263-1.65,6.317-3.813,8.047c-1.31,1.058-1.713,1.89-2.067,2.624c-0.748,1.545-1.444,2.247-4.873,2.365C13.169,21.991,13.106,22,13.042,22z"/><path d="M4.684,19.465C2.101,19.465,0,17.413,0,14.89c0-1.589,0.822-3.037,2.199-3.874c0.355-0.215,0.816-0.102,1.03,0.251c0.216,0.354,0.103,0.815-0.251,1.031C2.053,12.861,1.5,13.83,1.5,14.89c0,1.696,1.428,3.075,3.184,3.075c0.642,0,1.268-0.189,1.811-0.546c0.346-0.228,0.811-0.133,1.039,0.214c0.228,0.346,0.131,0.811-0.215,1.039C6.53,19.191,5.619,19.465,4.684,19.465z"/></svg>