<svg xmlns="http://www.w3.org/2000/svg" enable-background="new 0 0 28 28" viewBox="0 0 28 28"><path fill="#FFAB66" d="M19.329,2.775c2.029,2.048,2.216,12.459-1.638,14.424S2.952,19.247,2.856,13.436S2.134,2.608,7.913,2.148S17.258,0.685,19.329,2.775z"/><path d="M19.5,19h-12C5.019,19,3,16.981,3,14.5v-12C3,2.224,3.224,2,3.5,2h12C17.981,2,20,4.019,20,6.5v9c0,0.276-0.224,0.5-0.5,0.5S19,15.776,19,15.5v-9C19,4.57,17.43,3,15.5,3H4v11.5C4,16.43,5.57,18,7.5,18h12c0.276,0,0.5,0.224,0.5,0.5S19.776,19,19.5,19z"/><path d="M15.914 12.914c-.128 0-.256-.049-.354-.146-.195-.195-.195-.512 0-.707C15.844 11.777 16 11.401 16 11s-.156-.777-.439-1.061c-.566-.566-1.555-.566-2.121 0-.195.195-.512.195-.707 0-.195-.195-.195-.512 0-.707.943-.944 2.592-.944 3.535 0C16.74 9.704 17 10.332 17 11s-.26 1.296-.732 1.768C16.17 12.865 16.042 12.914 15.914 12.914zM13.5 19c-2.206 0-4-1.794-4-4 0-.276.224-.5.5-.5s.5.224.5.5c0 1.654 1.346 3 3 3 .276 0 .5.224.5.5S13.777 19 13.5 19zM10.5 6.5C10.224 6.5 10 6.276 10 6c0-1.654-1.346-3-3-3C6.724 3 6.5 2.776 6.5 2.5S6.724 2 7 2c2.206 0 4 1.794 4 4C11 6.276 10.777 6.5 10.5 6.5zM12 26c-.176 0-.339-.093-.43-.244-.09-.152-.094-.339-.01-.495l1.086-2C12.734 23.101 12.902 23 13.085 23 13.115 23 16 22.953 16 21.5c0-1.712-1.265-2.576-1.277-2.584-.183-.122-.265-.35-.201-.561S14.78 18 15 18h4.5c.276 0 .5.224.5.5v3C20 24.201 18.64 26 12 26zM13.387 23.993l-.541.997C19 24.831 19 22.915 19 21.5V19h-2.812C16.602 19.567 17 20.399 17 21.5 17 23.343 14.855 23.924 13.387 23.993z"/><path d="M22.5,19h-9c-0.185,0-0.354-0.102-0.441-0.264s-0.077-0.36,0.025-0.513l2-3C15.177,15.083,15.333,15,15.5,15h10c0.172,0,0.332,0.088,0.423,0.233c0.091,0.146,0.102,0.328,0.027,0.482C25.79,16.052,24.325,19,22.5,19z M14.434,18H22.5c0.717,0,1.58-1.044,2.159-2h-8.891L14.434,18z"/></svg>