<svg xmlns="http://www.w3.org/2000/svg" viewBox="0 0 24 24"><path fill="#45B62E" d="M18.537 2.728a3.225 3.225 0 0 0-3.972-2.63c-1.638.406-2.644 1.749-2.599 3.468a7.416 7.416 0 0 0-.031.869c.012 1.377.118 2.749.206 4.121.044.058.113.048.172.056.725.09 1.374.352 1.926.839.042.037.084.078.144.088.098-.004.147-.081.206-.139.708-.7 1.403-1.414 2.057-2.165.546-.627 1.076-1.268 1.485-1.997.272-.485.455-.996.453-1.56.006 0 .011-.005.013-.014a4.97 4.97 0 0 0-.06-.936zm-6.795 5.318c-.096-.831-.189-1.661-.292-2.491-.105-.84-.187-1.686-.379-2.511C10.696 1.435 9.248.429 7.607.931c-1.202.368-1.987 1.405-1.933 2.6l.001.507c.013.287.093.558.201.823.296.732.804 1.318 1.311 1.904.313.361.646.704.973 1.052.475.507.968.996 1.444 1.501.038.04.078.086.145.072a3.696 3.696 0 0 1 2.006-.834l.035-.001c-.016-.169-.028-.34-.048-.509zm.171 10.476c-.047-.811-.105-1.621-.159-2.432a.367.367 0 0 1-.009-.202.872.872 0 0 0-.016-.47c-.032-.087-.109-.086-.183-.096a3.326 3.326 0 0 1-1.158-.377c-.195-.105-.359-.259-.565-.343a.305.305 0 0 0-.203.242c-.004.001-.008.004-.012.01l-.035.036c-.118.146-.238.291-.355.437-.827 1.029-1.657 2.054-2.406 3.143-.585.85-.888 1.772-.794 2.81l.011.005.001.015c-.003.12.006.237.031.356.136.636.457 1.165.943 1.588.631.548 1.377.825 2.208.74 1.074-.109 1.841-.704 2.346-1.647.24-.448.368-.927.404-1.432.06-.795-.003-1.589-.049-2.383zm10.951-4.194c-.57-1.133-1.563-1.617-2.762-1.762-.623-.075-4.243-.162-4.561-.158-.051.001-.103.006-.146.039l-.067.322c-.149.627-.464 1.161-.9 1.629.029.11.106.175.209.212.025.022.053.043.076.068a43.708 43.708 0 0 0 2.933 2.794c.825.709 1.758 1.133 2.888 1.018 1.295-.132 2.387-1.161 2.553-2.636l.024-.011c.035-.525-.008-1.04-.247-1.515zm-13.36-4.7a59.975 59.975 0 0 0-3.225-2.665c-.78-.594-1.633-.977-2.643-.937-.757.03-1.399.305-1.901.866-.656.733-.911 1.61-.848 2.586.009.008.017.011.025.01v.001c.053.525.252.99.593 1.389.604.707 1.416.999 2.308 1.06.824.057 1.65-.002 2.474-.069.765-.063 1.53-.134 2.294-.202.028-.149.055-.298.086-.447.103-.502.343-.94.633-1.355.067-.08.135-.159.204-.237zm7.771 8.775c-.329-.563-.758-1.051-1.175-1.548-.562-.672-1.139-1.332-1.709-1.997a.103.103 0 0 0-.03-.004l-.185-.228a3.518 3.518 0 0 1-2.143.782c-.017.248.047.487.083.728.137.917.28 1.832.43 2.747.105.639.203 1.28.439 1.89.222.573.533 1.084 1.024 1.466.889.693 2.087.546 2.956-.084.523-.379.806-.899.853-1.546l.025-.01c.039-.791-.171-1.519-.568-2.196zm5.088-10.758c-.419-.822-1.065-1.315-2.004-1.386-.676-.051-1.29.157-1.876.467-.715.378-1.322.907-1.94 1.417-.575.474-1.14.959-1.71 1.439-.076.058-.19.077-.199.201l.195.254c.405.635.614 1.327.597 2.083.448-.037.896-.067 1.343-.113.978-.101 1.955-.22 2.927-.367.646-.097 1.274-.242 1.818-.63.63-.449 1.01-1.052 1.096-1.829v-.002a.032.032 0 0 0 .025-.008c.026-.529-.027-1.044-.272-1.526z"/><path fill="#EB5D3B" d="M8.805 13.215c-.101-.257-.14-.53-.226-.79l-.006-.411c-.608.052-1.205.179-1.808.27-.078.013-.157.025-.235.04-.763.148-1.528.293-2.255.578-.997.391-1.921 1.239-1.816 2.634l.024.009c.009.09.008.183.028.271a3 3 0 0 0 1.2 1.806c.397.29.849.455 1.339.433a2.277 2.277 0 0 0 1.396-.569c.246-.211.489-.427.727-.647a40.022 40.022 0 0 0 2.19-2.228l.033-.005a.806.806 0 0 1 .176-.201 3.845 3.845 0 0 1-.767-1.19zm-.227-.786h-.002l.003-.005-.001.005z"/><path fill="#FCCB00" d="M14.88 10.049c-.07-.092-.139-.184-.215-.271-.08-.095-.141-.211-.271-.253a3.553 3.553 0 0 0-2.253-.97h-.351a.143.143 0 0 0-.046-.027c-.046-.012-.09 0-.135.006a3.521 3.521 0 0 0-1.863.812c-.076.076-.176.131-.207.245a1.19 1.19 0 0 0-.035.037c-.126.032-.157.164-.247.234-.168.224-.31.462-.428.717-.166.357-.231.738-.293 1.12-.011.106-.007.212-.006.318-.001.125-.008.251.011.376.015.055.026.11.036.166.132.717.452 1.337.959 1.861.087.076.159.172.28.2.298.226.613.421.964.557.297.115.607.164.916.222.094.08.207.046.314.051.815-.016 1.544-.267 2.176-.787l.055-.053c.079-.058.152-.122.222-.191a3.583 3.583 0 0 0 .907-1.65c.028-.104.048-.209.064-.316.023-.11.04-.22.033-.333a3.496 3.496 0 0 0-.587-2.071z"/></svg>